# xmcd
#
# Track frame offsets:
#	150
#	21223
#	50538
#	73529
#	88397
#	121002
#	142751
#	160689
#	181689
#	206513
#
# Disc length: 2901 seconds
#
# Revision: 13
# Processed by: cddbd v1.5.2PL0 Copyright (c) Steve Scherf et al.
# Submitted via: EasyCDDAExtractor 15.3.0.1
#
DISCID=7c0b530a
DTITLE=George Michael - Listen Without Prejudice Vol. 1, MTV Unplugged - CD 1
DYEAR=2017
DGENRE=Pop
TTITLE0=Praying For Time
TTITLE1=Freedom
TTITLE2=They Won't Go When I Go
TTITLE3=Something To Save
TTITLE4=Cowboys And Angels
TTITLE5=Waiting For That Day, You Can't Always Get What You Want
TTITLE6=Mothers Pride
TTITLE7=Heal The Pain
TTITLE8=Soul Free
TTITLE9=Waiting (Reprise)
EXTD=YEAR: 2017
EXTT0=
EXTT1=
EXTT2=
EXTT3=
EXTT4=
EXTT5=
EXTT6=
EXTT7=
EXTT8=
EXTT9=
PLAYORDER=
